<svg width="138" height="104" xmlns="http://www.w3.org/2000/svg" xmlns:xlink="http://www.w3.org/1999/xlink" xml:space="preserve" overflow="hidden"><g transform="translate(-40 -184)"><g><g><g><g><path d="M116.281 224.248C113.541 230.72 107.131 235.261 99.6604 235.261 97.6827 235.261 96.0794 233.658 96.0794 231.68 96.0794 229.702 97.6827 228.099 99.6604 228.099 105.49 228.099 110.249 223.513 110.527 217.752 109.669 215.876 109.192 213.79 109.192 211.592 109.192 209.615 110.795 208.011 112.773 208.011 114.75 208.011 116.354 209.615 116.354 211.592 116.354 215.831 119.789 219.267 124.028 219.267 126.006 219.267 127.609 220.87 127.609 222.848 127.609 224.825 126.006 226.429 124.028 226.429 121.189 226.429 118.536 225.631 116.281 224.248ZM106.927 261.221C104.627 257.781 103.309 253.624 103.309 249.348 103.309 247.37 104.913 245.767 106.89 245.767 108.868 245.767 110.471 247.37 110.471 249.348 110.471 255.036 114.021 260.407 119.024 262.116 122.524 263.312 126.636 262.738 129.676 260.629 131.254 259.534 132.404 258.355 134.907 255.435L134.933 255.405C138.381 251.382 140.145 249.661 143.059 248.026 144.784 247.058 146.967 247.672 147.935 249.397 148.902 251.121 148.288 253.304 146.564 254.272 144.625 255.36 143.278 256.674 140.371 260.066L140.344 260.096C137.446 263.478 136.006 264.954 133.759 266.514 133.42 266.748 133.075 266.971 132.722 267.182 134.303 267.958 135.853 268.807 137.366 269.729L156.467 281.36C158.156 282.388 158.692 284.592 157.663 286.281 156.634 287.97 154.431 288.506 152.742 287.477L133.64 275.846C125.006 270.586 115.003 268.004 104.898 268.428L72.164 269.797C55.0272 269.797 41.1345 255.905 41.1345 238.768 41.1345 227.485 47.2118 217.284 56.7719 211.818 61.3653 198.306 74.1606 188.585 89.2266 188.585 93.8289 188.585 98.3046 189.494 102.452 191.23 108.591 187.238 115.855 185 123.499 185 144.287 185 161.239 201.422 162.09 222.002 171.25 224.999 177.866 233.615 177.866 243.776 177.866 252.068 173.458 259.332 166.858 263.353L169.993 277.717C170.415 279.65 169.191 281.558 167.258 281.98 165.326 282.401 163.418 281.177 162.996 279.245L160.127 266.097C158.466 266.48 156.736 266.682 154.96 266.682 152.982 266.682 151.379 265.079 151.379 263.101 151.379 261.123 152.982 259.52 154.96 259.52 157.13 259.52 159.198 259.081 161.079 258.286 161.237 258.202 161.402 258.128 161.574 258.067 166.965 255.568 170.703 250.108 170.703 243.776 170.703 235.08 163.655 228.032 154.96 228.032 149.66 228.032 144.815 230.664 141.902 234.975 140.794 236.614 138.568 237.045 136.93 235.937 135.291 234.83 134.86 232.604 135.967 230.965 140.177 224.735 147.185 220.909 154.843 220.87 153.447 204.783 139.947 192.162 123.499 192.162 116.747 192.162 110.362 194.303 105.114 198.085 105 198.181 104.88 198.268 104.755 198.348 101.844 200.51 99.2948 203.183 97.2439 206.28 96.1521 207.929 93.9301 208.381 92.2811 207.289 90.6321 206.197 90.1804 203.975 91.2723 202.326 92.6476 200.249 94.2062 198.327 95.9208 196.578 93.7573 196.029 91.5137 195.747 89.2266 195.747 76.9429 195.747 66.5675 203.916 63.2381 215.118 63.2126 215.223 63.1825 215.326 63.1478 215.428 62.4773 217.788 62.1183 220.279 62.1183 222.853 62.1183 226.034 62.6651 229.135 63.7211 232.06 64.3927 233.92 63.4292 235.972 61.5689 236.644 59.7087 237.316 57.6563 236.352 56.9847 234.492 55.6481 230.79 54.9563 226.866 54.9563 222.853 54.9563 222.64 54.9582 222.428 54.9621 222.216 50.7745 226.569 48.2965 232.447 48.2965 238.768 48.2965 251.95 58.9826 262.635 72.014 262.638L104.598 261.272C105.375 261.24 106.151 261.223 106.927 261.221ZM76.4699 219.644C77.8684 218.245 80.1358 218.245 81.5343 219.644 82.9327 221.042 82.9327 223.31 81.5343 224.708 79.9466 226.296 79.1873 228.484 79.3966 230.858 79.4688 231.678 79.69 232.443 80.3478 234.272 80.3806 234.363 80.3806 234.363 80.4137 234.455 81.5609 237.648 81.956 239.404 81.659 241.806 80.8496 248.355 73.9677 252.928 67.2331 252.928 65.2554 252.928 63.6521 251.325 63.6521 249.347 63.6521 247.369 65.2554 245.766 67.2331 245.766 70.6929 245.766 74.2448 243.406 74.5511 240.927 74.6665 239.994 74.4537 239.048 73.6734 236.876 73.6411 236.786 73.6411 236.786 73.6085 236.696 72.7416 234.286 72.4067 233.128 72.2622 231.486 71.8701 227.04 73.3559 222.758 76.4699 219.644Z" fill="#FFFFFF" fill-rule="evenodd" fill-opacity="1"/></g></g></g></g></g></svg>