<svg width="104" height="133" xmlns="http://www.w3.org/2000/svg" xmlns:xlink="http://www.w3.org/1999/xlink" xml:space="preserve" overflow="hidden"><g transform="translate(-60 -361)"><g><g><g><g><path d="M153.16 486.847C154.599 486.847 155.764 485.682 155.764 484.244L155.764 371.756C155.764 370.318 154.599 369.153 153.16 369.153L70.8399 369.153C69.4014 369.153 68.2363 370.318 68.2363 371.756L68.2363 484.244C68.2363 485.682 69.4014 486.847 70.8399 486.847L153.16 486.847ZM153.16 494 70.8399 494C65.4512 494 61.0838 489.633 61.0838 484.244L61.0838 371.756C61.0838 366.367 65.4512 362 70.8399 362L153.16 362C158.549 362 162.916 366.367 162.916 371.756L162.916 484.244C162.916 489.633 158.549 494 153.16 494ZM89.6705 399.55C87.6954 399.55 86.0942 397.949 86.0942 395.974 86.0942 393.999 87.6954 392.397 89.6705 392.397L135.395 392.397C137.37 392.397 138.971 393.999 138.971 395.974 138.971 397.949 137.37 399.55 135.395 399.55L89.6705 399.55ZM89.6705 428.16C87.6954 428.16 86.0942 426.559 86.0942 424.584 86.0942 422.609 87.6954 421.007 89.6705 421.007L135.395 421.007C137.37 421.007 138.971 422.609 138.971 424.584 138.971 426.559 137.37 428.16 135.395 428.16L89.6705 428.16ZM89.6705 458.558C87.6954 458.558 86.0942 456.957 86.0942 454.982 86.0942 453.007 87.6954 451.406 89.6705 451.406L135.395 451.406C137.37 451.406 138.971 453.007 138.971 454.982 138.971 456.957 137.37 458.558 135.395 458.558L89.6705 458.558Z" fill="#FFFFFF" fill-rule="evenodd" fill-opacity="1"/></g></g></g></g></g></svg>