<svg width="123" height="139" xmlns="http://www.w3.org/2000/svg" xmlns:xlink="http://www.w3.org/1999/xlink" xml:space="preserve" overflow="hidden"><defs><clipPath id="clip0"><rect x="49" y="549" width="123" height="139"/></clipPath><clipPath id="clip1"><rect x="49" y="549" width="123" height="139"/></clipPath><clipPath id="clip2"><rect x="50" y="550" width="122" height="137"/></clipPath><clipPath id="clip3"><rect x="50" y="550" width="122" height="137"/></clipPath><clipPath id="clip4"><rect x="50" y="550" width="122" height="137"/></clipPath></defs><g clip-path="url(#clip0)" transform="translate(-49 -549)"><g clip-path="url(#clip1)"><g clip-path="url(#clip2)"><g clip-path="url(#clip3)"><g clip-path="url(#clip4)"><path d="M90.9164 626.056C90.0411 623.717 89.5624 621.185 89.5624 618.541 89.5624 615.935 90.0276 613.437 90.8793 611.126L77.0804 603.159C75.3651 602.169 74.7774 599.976 75.7676 598.26 76.7579 596.545 78.9512 595.957 80.6665 596.948L94.4544 604.908C97.6468 601.037 102.171 598.306 107.325 597.416L107.325 581.456C107.325 579.475 108.931 577.869 110.912 577.869 112.892 577.869 114.498 579.475 114.498 581.456L114.498 597.387C119.726 598.245 124.317 600.993 127.546 604.908L141.333 596.948C143.049 595.958 145.242 596.546 146.232 598.261 147.223 599.976 146.635 602.17 144.919 603.16L131.121 611.126C131.973 613.437 132.438 615.935 132.438 618.541 132.438 621.185 131.959 623.718 131.084 626.056L144.832 633.993C146.547 634.984 147.135 637.177 146.145 638.892 145.154 640.608 142.961 641.195 141.246 640.205L127.477 632.256C124.252 636.127 119.689 638.844 114.498 639.696L114.498 655.546C114.498 657.527 112.892 659.132 110.912 659.132 108.931 659.132 107.325 657.527 107.325 655.546L107.325 639.666C102.207 638.782 97.711 636.083 94.5225 632.256L80.754 640.205C79.0387 641.195 76.8454 640.607 75.8551 638.892 74.8649 637.177 75.4526 634.983 77.1679 633.993L90.9164 626.056ZM98.3584 625.157C98.4956 625.319 98.6204 625.495 98.7303 625.686 98.8356 625.868 98.9231 626.056 98.9933 626.247 101.531 630.193 105.96 632.807 110.999 632.807 118.878 632.807 125.265 626.42 125.265 618.541 125.265 610.704 118.948 604.345 111.128 604.276 111.056 604.28 110.984 604.282 110.912 604.282 110.851 604.282 110.79 604.281 110.73 604.278 105.693 604.371 101.295 607.075 98.8307 611.093 98.776 611.22 98.7134 611.344 98.6428 611.467 98.5749 611.584 98.5014 611.696 98.4228 611.803 97.3458 613.81 96.7349 616.104 96.7349 618.541 96.7349 620.929 97.3215 623.179 98.3584 625.157ZM114.662 560.855C114.662 558.833 113.022 557.193 110.999 557.193 108.977 557.193 107.337 558.833 107.337 560.855 107.337 562.878 108.977 564.518 110.999 564.518 113.022 564.518 114.662 562.878 114.662 560.855ZM121.835 560.855C121.835 566.839 116.984 571.691 110.999 571.691 105.016 571.691 100.165 566.839 100.165 560.855 100.165 554.872 105.016 550.021 110.999 550.021 116.983 550.021 121.835 554.872 121.835 560.855ZM114.662 676.145C114.662 674.123 113.022 672.484 110.999 672.484 108.977 672.484 107.337 674.124 107.337 676.145 107.337 678.168 108.977 679.807 110.999 679.807 113.023 679.807 114.662 678.168 114.662 676.145ZM121.835 676.145C121.835 682.13 116.984 686.979 110.999 686.979 105.016 686.979 100.165 682.129 100.165 676.145 100.165 670.162 105.016 665.311 110.999 665.311 116.983 665.311 121.835 670.162 121.835 676.145ZM62.6695 585.61C60.9165 584.597 58.6773 585.197 57.6658 586.949 56.6535 588.702 57.2533 590.942 59.0048 591.953 60.7579 592.965 62.997 592.365 64.0089 590.611 65.0206 588.86 64.4208 586.62 62.6695 585.61ZM70.2202 594.198C67.2292 599.381 60.6034 601.156 55.42 598.165 50.236 595.174 48.4611 588.545 51.4545 583.363 54.4463 578.181 61.0724 576.405 66.255 579.398 71.4385 582.389 73.2134 589.018 70.2202 594.198ZM162.995 645.048C161.242 644.036 159.003 644.636 157.991 646.388 156.979 648.14 157.579 650.38 159.33 651.391 161.083 652.403 163.323 651.803 164.334 650.05 165.346 648.297 164.747 646.059 162.995 645.048ZM170.546 653.636C167.555 658.819 160.929 660.595 155.744 657.603 150.561 654.609 148.787 647.983 151.78 642.801 154.772 637.619 161.398 635.843 166.581 638.836 171.764 641.828 173.539 648.454 170.546 653.636ZM59.0062 645.047C57.2533 646.059 56.6538 648.297 57.6667 650.051 58.6775 651.803 60.9166 652.403 62.6685 651.392 64.4213 650.38 65.021 648.14 64.0084 646.387 62.9972 644.636 60.758 644.036 59.0062 645.047ZM70.2197 642.8C73.2132 647.983 71.4388 654.609 66.2545 657.604 61.0711 660.595 54.4453 658.819 51.455 653.637 48.4614 648.454 50.236 641.828 55.4195 638.836 60.6021 635.843 67.2282 637.619 70.2197 642.8ZM159.332 585.609C157.579 586.62 156.979 588.86 157.992 590.613 159.003 592.365 161.242 592.965 162.995 591.953 164.747 590.942 165.347 588.702 164.334 586.949 163.323 585.197 161.084 584.597 159.332 585.609ZM170.545 583.362C173.539 588.545 171.764 595.174 166.58 598.165 161.397 601.156 154.771 599.381 151.781 594.2 148.787 589.018 150.562 582.389 155.745 579.398 160.928 576.405 167.554 578.181 170.545 583.362Z" fill="#FFFFFF" fill-rule="evenodd" fill-opacity="1"/></g></g></g></g></g></svg>